<svg width="376" height="378" viewBox="0 0 376 378" fill="none" xmlns="http://www.w3.org/2000/svg">
<g filter="url(#filter0_d_119_4047)">
<path d="M120.5 358L108 364H99L92.5 358V347.5L100.5 340L105 338L112 335.5L113.41 302.128L100.5 294L102 284.5L89.5 296.5L78.5 300.5H64.5L62.5 288L57.5 287L50.5 285L42 282.5L39.5 279L37 273L34.5 266.5L33.5 262.5L32 258.5L33.5 241L41.5 237L38.5 234L39.5 224L42 221.5H57.5L59.5 219L57.5 215.5L55 213V208.5L47 207.5L39 206L37 204L33.5 200.5V193.5L36 182L32.5 180.5L29.5 179.5L24.5 182H14.5L11 180.5V176L20 166.5L23 156L26.5 145H32.5L34 136L40 126.5L42 122V111.5L44.5 108L50.5 109.5L58.5 104L69.5 87L76 83L82.5 70L95.5 66L95 59L92 41L106 23L113 19.5L134 14L136 9.5H140.5L143.5 14L146 19.5L142.5 25V30.5H152L154 26.5H160.5L159 34L149.5 42L150.5 49.5L156 46L160.5 48.5L159 58.5V65L164 66H173L188 68L196 74V82L188 92L186.5 97V101L189 106.5L186.5 110.5V115.5H194V109L200.5 103.5L218 119.5L227.5 115.5V103.5V99L219.5 92L218 81L227.5 75L233.5 71.5L241 77L247 81L260 77L264.5 81V85.5H260V92L270.5 97L276.5 89L287.5 92L291.5 101L289.5 110.5L304 119.5L300.5 130H313.5V138H308.5V143L323 155L325 172L318 178V185L308.5 193.5H320L333.5 182L343.5 184L340.5 193.5L352 208L347.5 222L353.5 235L361.5 238V243L357.5 249V257L352 265V270.5L364.5 288L361.5 299.5H353.5L352 295H347.5L333 301.5V309.5L343.5 323.5L340.5 332.5L333 335.5L325 339.5H315.5L313.5 335.5L300 321.5L233 327.5L222 335.5L215.5 330.5L210 335.5L172.5 330.5L160.5 327.5H159.5H148.5L132 338L129.5 347.5H123L120.5 358Z" fill="#FAC673"/>
<path d="M148.5 327.5L132 338L129.5 347.5H123L120.5 358L108 364H99L92.5 358V347.5L100.5 340L105 338L112 335.5M148.5 327.5H159.5M148.5 327.5H160.5M160.5 327.5L172.5 330.5L210 335.5L215.5 330.5L222 335.5L233 327.5L300 321.5L313.5 335.5L315.5 339.5H325L333 335.5L340.5 332.5L343.5 323.5L333 309.5V301.5L347.5 295H352L353.5 299.5H361.5L364.5 288L352 270.5V265L357.5 257V249L361.5 243V238L353.5 235L347.5 222L352 208L340.5 193.5L343.5 184L333.5 182L320 193.5H308.5L318 185V178L325 172L323 155L308.5 143V138H313.5V130H300.5L304 119.5L289.5 110.5L291.5 101L287.5 92L276.5 89L270.5 97L260 92V85.5H264.5V81L260 77L247 81L241 77L233.5 71.5L227.5 75L218 81L219.5 92L227.5 99V103.5V115.5L218 119.5L200.5 103.5L194 109V115.5H186.5V110.5L189 106.5L186.5 101V97L188 92L196 82V74L188 68L173 66H164L159 65V58.5L160.5 48.5L156 46L150.5 49.5L149.5 42L159 34L160.5 26.5H154L152 30.5H142.5V25L146 19.5L143.5 14L140.5 9.5H136L134 14L113 19.5L106 23L92 41L95 59L95.5 66L82.5 70L76 83L69.5 87L58.5 104L50.5 109.5L44.5 108L42 111.5V122L40 126.5L34 136L32.5 145H26.5L23 156L20 166.5L11 176V180.5L14.5 182H24.5L29.5 179.5L32.5 180.5L36 182L33.5 193.5V200.5L37 204L39 206L47 207.5L55 208.5V213L57.5 215.5L59.5 219L57.5 221.5H42L39.5 224L38.5 234L41.5 237L33.5 241L32 258.5L33.5 262.5L34.5 266.5L37 273L39.5 279L42 282.5L50.5 285L57.5 287L62.5 288L64.5 300.5H78.5L89.5 296.5L102 284.5M160.5 327.5H159.5M102 284.5L107 277.5L109.5 285L114 291L120.5 281.5L135.5 283L151.5 295.5V304H165.5L170 312.5L160.5 319.5L159.5 327.5M102 284.5L100.5 294L113.41 302.128M112 335.5L114 302.5L113.41 302.128M112 335.5L113.41 302.128" stroke="#F7AD35" stroke-width="2"/>
<path d="M171.567 188.224C171.567 188.865 171.428 189.446 171.151 189.966C170.882 190.477 170.471 190.885 169.916 191.188C169.361 191.483 168.659 191.63 167.81 191.63C166.605 191.63 165.691 191.318 165.067 190.694C164.443 190.061 164.131 189.229 164.131 188.198V182.218H165.795V188.029C165.795 188.783 165.968 189.338 166.315 189.693C166.662 190.04 167.177 190.213 167.862 190.213C168.347 190.213 168.737 190.131 169.032 189.966C169.335 189.801 169.556 189.554 169.695 189.225C169.842 188.887 169.916 188.484 169.916 188.016V182.218H171.567V188.224ZM176.092 191.63C175.277 191.63 174.614 191.327 174.103 190.72C173.6 190.105 173.349 189.195 173.349 187.99C173.349 186.785 173.605 185.875 174.116 185.26C174.627 184.636 175.299 184.324 176.131 184.324C176.478 184.324 176.781 184.372 177.041 184.467C177.31 184.554 177.539 184.675 177.73 184.831C177.921 184.987 178.081 185.16 178.211 185.351H178.289C178.263 185.23 178.237 185.043 178.211 184.792C178.185 184.541 178.172 184.307 178.172 184.09V181.62H179.81V191.5H178.536L178.237 190.577H178.172C178.042 190.768 177.882 190.945 177.691 191.11C177.5 191.266 177.275 191.392 177.015 191.487C176.755 191.582 176.447 191.63 176.092 191.63ZM176.586 190.304C177.193 190.304 177.622 190.131 177.873 189.784C178.124 189.437 178.25 188.913 178.25 188.211V188.003C178.25 187.24 178.129 186.66 177.886 186.261C177.652 185.862 177.21 185.663 176.56 185.663C176.066 185.663 175.685 185.871 175.416 186.287C175.147 186.694 175.013 187.271 175.013 188.016C175.013 188.761 175.147 189.329 175.416 189.719C175.685 190.109 176.075 190.304 176.586 190.304ZM184.711 184.324C185.621 184.324 186.31 184.523 186.778 184.922C187.254 185.312 187.493 185.927 187.493 186.768V191.5H186.336L186.011 190.525H185.959C185.759 190.776 185.551 190.989 185.335 191.162C185.127 191.327 184.884 191.444 184.607 191.513C184.338 191.591 184.009 191.63 183.619 191.63C183.203 191.63 182.826 191.552 182.488 191.396C182.158 191.24 181.898 191.002 181.708 190.681C181.517 190.352 181.422 189.94 181.422 189.446C181.422 188.718 181.686 188.172 182.215 187.808C182.752 187.435 183.562 187.232 184.646 187.197L185.868 187.158V186.807C185.868 186.356 185.759 186.036 185.543 185.845C185.326 185.654 185.023 185.559 184.633 185.559C184.277 185.559 183.935 185.611 183.606 185.715C183.276 185.819 182.956 185.94 182.644 186.079L182.124 184.935C182.47 184.753 182.865 184.606 183.307 184.493C183.757 184.38 184.225 184.324 184.711 184.324ZM185.01 188.198C184.29 188.224 183.792 188.35 183.515 188.575C183.237 188.792 183.099 189.086 183.099 189.459C183.099 189.788 183.198 190.027 183.398 190.174C183.597 190.321 183.853 190.395 184.165 190.395C184.641 190.395 185.044 190.261 185.374 189.992C185.703 189.715 185.868 189.307 185.868 188.77V188.172L185.01 188.198ZM191.183 184.454V191.5H189.545V184.454H191.183ZM190.364 181.737C190.607 181.737 190.819 181.802 191.001 181.932C191.183 182.053 191.274 182.274 191.274 182.595C191.274 182.907 191.183 183.132 191.001 183.271C190.819 183.401 190.607 183.466 190.364 183.466C190.113 183.466 189.896 183.401 189.714 183.271C189.541 183.132 189.454 182.907 189.454 182.595C189.454 182.274 189.541 182.053 189.714 181.932C189.896 181.802 190.113 181.737 190.364 181.737ZM196.983 184.324C197.806 184.324 198.469 184.632 198.972 185.247C199.474 185.854 199.726 186.759 199.726 187.964C199.726 188.761 199.609 189.433 199.375 189.979C199.141 190.525 198.816 190.937 198.4 191.214C197.984 191.491 197.498 191.63 196.944 191.63C196.606 191.63 196.307 191.587 196.047 191.5C195.787 191.405 195.566 191.288 195.384 191.149C195.202 191.002 195.046 190.846 194.916 190.681H194.812C194.846 190.837 194.872 191.015 194.89 191.214C194.907 191.405 194.916 191.587 194.916 191.76V194.62H193.278V184.454H194.604L194.838 185.39H194.916C195.046 185.191 195.202 185.013 195.384 184.857C195.574 184.692 195.8 184.562 196.06 184.467C196.328 184.372 196.636 184.324 196.983 184.324ZM196.515 185.65C196.133 185.65 195.826 185.728 195.592 185.884C195.358 186.031 195.189 186.261 195.085 186.573C194.981 186.885 194.924 187.275 194.916 187.743V187.951C194.916 188.454 194.963 188.878 195.059 189.225C195.163 189.572 195.332 189.836 195.566 190.018C195.808 190.2 196.133 190.291 196.541 190.291C196.887 190.291 197.169 190.196 197.386 190.005C197.611 189.814 197.776 189.546 197.88 189.199C197.992 188.844 198.049 188.423 198.049 187.938C198.049 187.21 197.923 186.647 197.672 186.248C197.429 185.849 197.043 185.65 196.515 185.65ZM207.668 184.454V191.5H206.381L206.16 190.59H206.082C205.935 190.833 205.744 191.032 205.51 191.188C205.276 191.335 205.021 191.444 204.743 191.513C204.466 191.591 204.18 191.63 203.885 191.63C203.365 191.63 202.915 191.539 202.533 191.357C202.152 191.175 201.862 190.898 201.662 190.525C201.463 190.144 201.363 189.654 201.363 189.056V184.454H203.001V188.731C203.001 189.251 203.105 189.645 203.313 189.914C203.521 190.174 203.851 190.304 204.301 190.304C204.743 190.304 205.09 190.213 205.341 190.031C205.593 189.84 205.77 189.567 205.874 189.212C205.978 188.857 206.03 188.419 206.03 187.899V184.454H207.668ZM213.448 184.324C213.552 184.324 213.673 184.328 213.812 184.337C213.951 184.346 214.068 184.363 214.163 184.389L214.02 185.91C213.942 185.893 213.838 185.88 213.708 185.871C213.587 185.854 213.478 185.845 213.383 185.845C213.123 185.845 212.872 185.888 212.629 185.975C212.395 186.053 212.183 186.174 211.992 186.339C211.81 186.495 211.663 186.699 211.55 186.95C211.446 187.201 211.394 187.5 211.394 187.847V191.5H209.756V184.454H211.017L211.251 185.676H211.329C211.468 185.425 211.641 185.199 211.849 185C212.057 184.792 212.295 184.627 212.564 184.506C212.841 184.385 213.136 184.324 213.448 184.324Z" fill="#84361B"/>
<path d="M120.542 358.396L107.8 364.5H98.6258L92 358.396V347.714L100.155 340.084L104.742 338.049L111.877 335.506L113.314 301.555L100.155 293.286L101.684 283.621L106.781 276.5L109.329 284.13L113.916 290.234L120.542 280.569L135.832 282.095L152.142 294.812V303.46H166.413L171 312.107L161.316 319.228L160.297 327.367H149.084L132.265 338.049L129.716 347.714H123.09L120.542 358.396Z" fill="#64B6A4"/>
<path d="M111.877 335.506L113.916 301.934L113.314 301.555M111.877 335.506L104.742 338.049L100.155 340.084L92 347.714V358.396L98.6258 364.5H107.8L120.542 358.396L123.09 347.714H129.716L132.265 338.049L149.084 327.367H160.297L161.316 319.228L171 312.107L166.413 303.46H152.142V294.812L135.832 282.095L120.542 280.569L113.916 290.234L109.329 284.13L106.781 276.5L101.684 283.621L100.155 293.286L113.314 301.555M111.877 335.506L113.314 301.555" stroke="#55AE9A" stroke-width="2"/>
<path d="M160 321V327.5L210.5 336.5L214.5 331.5L210.5 329.5V323.5V313.5L201.5 311L203 302H209V297.5L204.5 294L191 292.5V284L178.5 282.5L171 274L161.5 269.5H153.5L144.5 261.5L136.5 264V271.5L117.5 272L107 277.5L108.5 284L115 291L120.5 282.5L135.5 284L152 296V305H165.5L170 313.5L160 321Z" fill="#D77E6E" stroke="#C16F60" stroke-width="2"/>
<g clip-path="url(#clip0_119_4047)">
<path d="M160.713 273.785C158.013 273.785 155.571 275.855 155.571 279.056C155.571 281.1 157.145 283.503 160.288 286.273C160.533 286.486 160.899 286.486 161.143 286.273C164.28 283.503 165.854 281.1 165.854 279.056C165.854 275.855 163.412 273.785 160.713 273.785ZM160.713 280.213C160.006 280.213 159.427 279.634 159.427 278.927C159.427 278.22 160.006 277.642 160.713 277.642C161.42 277.642 161.998 278.22 161.998 278.927C161.998 279.634 161.42 280.213 160.713 280.213Z" fill="#FFF974"/>
</g>
<g clip-path="url(#clip1_119_4047)">
<path d="M129.713 297.785C127.013 297.785 124.571 299.855 124.571 303.056C124.571 305.1 126.145 307.503 129.288 310.273C129.533 310.486 129.899 310.486 130.143 310.273C133.28 307.503 134.854 305.1 134.854 303.056C134.854 299.855 132.412 297.785 129.713 297.785ZM129.713 304.213C129.006 304.213 128.427 303.634 128.427 302.927C128.427 302.22 129.006 301.642 129.713 301.642C130.42 301.642 130.998 302.22 130.998 302.927C130.998 303.634 130.42 304.213 129.713 304.213Z" fill="#FFF974"/>
</g>
<g filter="url(#filter1_d_119_4047)">
<path d="M172.47 271.79C173.44 271.79 174.24 271.91 174.87 272.15C175.5 272.38 175.97 272.735 176.28 273.215C176.59 273.685 176.745 274.28 176.745 275C176.745 275.49 176.65 275.92 176.46 276.29C176.28 276.65 176.035 276.96 175.725 277.22C175.425 277.47 175.1 277.675 174.75 277.835L177.9 282.5H175.38L172.83 278.39H171.615V282.5H169.35V271.79H172.47ZM172.305 273.65H171.615V276.545H172.35C172.85 276.545 173.255 276.49 173.565 276.38C173.875 276.27 174.1 276.105 174.24 275.885C174.38 275.655 174.45 275.38 174.45 275.06C174.45 274.72 174.37 274.45 174.21 274.25C174.06 274.04 173.825 273.89 173.505 273.8C173.195 273.7 172.795 273.65 172.305 273.65ZM181.307 274.31V282.5H179.072V274.31H181.307ZM180.197 271.1C180.527 271.1 180.812 271.18 181.052 271.34C181.292 271.49 181.412 271.775 181.412 272.195C181.412 272.605 181.292 272.89 181.052 273.05C180.812 273.21 180.527 273.29 180.197 273.29C179.857 273.29 179.567 273.21 179.327 273.05C179.097 272.89 178.982 272.605 178.982 272.195C178.982 271.775 179.097 271.49 179.327 271.34C179.567 271.18 179.857 271.1 180.197 271.1ZM189.358 280.07C189.358 280.62 189.228 281.09 188.968 281.48C188.708 281.86 188.318 282.15 187.798 282.35C187.278 282.55 186.633 282.65 185.863 282.65C185.293 282.65 184.803 282.61 184.393 282.53C183.983 282.46 183.573 282.34 183.163 282.17V280.325C183.603 280.525 184.078 280.69 184.588 280.82C185.098 280.95 185.548 281.015 185.938 281.015C186.378 281.015 186.688 280.95 186.868 280.82C187.058 280.69 187.153 280.52 187.153 280.31C187.153 280.17 187.113 280.045 187.033 279.935C186.963 279.825 186.803 279.7 186.553 279.56C186.303 279.42 185.913 279.24 185.383 279.02C184.873 278.8 184.453 278.585 184.123 278.375C183.793 278.155 183.548 277.895 183.388 277.595C183.228 277.285 183.148 276.9 183.148 276.44C183.148 275.68 183.443 275.11 184.033 274.73C184.623 274.35 185.408 274.16 186.388 274.16C186.898 274.16 187.383 274.21 187.843 274.31C188.303 274.41 188.778 274.575 189.268 274.805L188.593 276.41C188.323 276.29 188.063 276.185 187.813 276.095C187.563 276.005 187.318 275.935 187.078 275.885C186.848 275.835 186.608 275.81 186.358 275.81C186.028 275.81 185.778 275.855 185.608 275.945C185.448 276.035 185.368 276.17 185.368 276.35C185.368 276.48 185.408 276.6 185.488 276.71C185.578 276.81 185.743 276.92 185.983 277.04C186.233 277.16 186.598 277.32 187.078 277.52C187.548 277.71 187.953 277.91 188.293 278.12C188.633 278.32 188.893 278.575 189.073 278.885C189.263 279.185 189.358 279.58 189.358 280.07ZM193.334 273.425C193.334 273.825 193.319 274.21 193.289 274.58C193.269 274.95 193.249 275.21 193.229 275.36H193.349C193.529 275.08 193.739 274.855 193.979 274.685C194.219 274.505 194.484 274.375 194.774 274.295C195.074 274.205 195.389 274.16 195.719 274.16C196.309 274.16 196.824 274.265 197.264 274.475C197.704 274.685 198.044 275.01 198.284 275.45C198.534 275.89 198.659 276.46 198.659 277.16V282.5H196.424V277.715C196.424 277.125 196.314 276.685 196.094 276.395C195.884 276.095 195.554 275.945 195.104 275.945C194.654 275.945 194.299 276.05 194.039 276.26C193.789 276.47 193.609 276.775 193.499 277.175C193.389 277.575 193.334 278.065 193.334 278.645V282.5H191.099V271.1H193.334V273.425ZM204.317 274.145C205.417 274.145 206.257 274.385 206.837 274.865C207.427 275.335 207.722 276.06 207.722 277.04V282.5H206.162L205.727 281.39H205.667C205.437 281.68 205.197 281.92 204.947 282.11C204.707 282.3 204.427 282.435 204.107 282.515C203.797 282.605 203.412 282.65 202.952 282.65C202.472 282.65 202.037 282.56 201.647 282.38C201.267 282.19 200.967 281.905 200.747 281.525C200.527 281.135 200.417 280.645 200.417 280.055C200.417 279.185 200.722 278.545 201.332 278.135C201.942 277.715 202.857 277.485 204.077 277.445L205.502 277.4V277.04C205.502 276.61 205.387 276.295 205.157 276.095C204.937 275.895 204.627 275.795 204.227 275.795C203.827 275.795 203.437 275.855 203.057 275.975C202.677 276.085 202.297 276.225 201.917 276.395L201.182 274.88C201.622 274.65 202.107 274.47 202.637 274.34C203.177 274.21 203.737 274.145 204.317 274.145ZM204.632 278.735C203.912 278.755 203.412 278.885 203.132 279.125C202.852 279.365 202.712 279.68 202.712 280.07C202.712 280.41 202.812 280.655 203.012 280.805C203.212 280.945 203.472 281.015 203.792 281.015C204.272 281.015 204.677 280.875 205.007 280.595C205.337 280.305 205.502 279.9 205.502 279.38V278.705L204.632 278.735ZM212.245 273.755C212.245 274.065 212.235 274.37 212.215 274.67C212.195 274.97 212.175 275.205 212.155 275.375H212.245C212.465 275.035 212.76 274.75 213.13 274.52C213.5 274.28 213.98 274.16 214.57 274.16C215.49 274.16 216.235 274.52 216.805 275.24C217.375 275.95 217.66 277 217.66 278.39C217.66 279.32 217.525 280.105 217.255 280.745C216.995 281.375 216.63 281.85 216.16 282.17C215.69 282.49 215.14 282.65 214.51 282.65C213.91 282.65 213.435 282.545 213.085 282.335C212.745 282.115 212.465 281.87 212.245 281.6H212.095L211.72 282.5H210.01V271.1H212.245V273.755ZM213.85 275.945C213.46 275.945 213.15 276.025 212.92 276.185C212.69 276.345 212.52 276.59 212.41 276.92C212.31 277.24 212.255 277.645 212.245 278.135V278.375C212.245 279.165 212.36 279.775 212.59 280.205C212.83 280.625 213.26 280.835 213.88 280.835C214.34 280.835 214.705 280.625 214.975 280.205C215.245 279.775 215.38 279.16 215.38 278.36C215.38 277.56 215.24 276.96 214.96 276.56C214.69 276.15 214.32 275.945 213.85 275.945ZM221.737 273.425C221.737 273.825 221.722 274.21 221.692 274.58C221.672 274.95 221.652 275.21 221.632 275.36H221.752C221.932 275.08 222.142 274.855 222.382 274.685C222.622 274.505 222.887 274.375 223.177 274.295C223.477 274.205 223.792 274.16 224.122 274.16C224.712 274.16 225.227 274.265 225.667 274.475C226.107 274.685 226.447 275.01 226.687 275.45C226.937 275.89 227.062 276.46 227.062 277.16V282.5H224.827V277.715C224.827 277.125 224.717 276.685 224.497 276.395C224.287 276.095 223.957 275.945 223.507 275.945C223.057 275.945 222.702 276.05 222.442 276.26C222.192 276.47 222.012 276.775 221.902 277.175C221.792 277.575 221.737 278.065 221.737 278.645V282.5H219.502V271.1H221.737V273.425ZM231.955 282.65C231.045 282.65 230.3 282.295 229.72 281.585C229.15 280.865 228.865 279.81 228.865 278.42C228.865 277.02 229.155 275.96 229.735 275.24C230.315 274.52 231.075 274.16 232.015 274.16C232.405 274.16 232.75 274.215 233.05 274.325C233.35 274.425 233.605 274.565 233.815 274.745C234.035 274.925 234.22 275.13 234.37 275.36H234.445C234.415 275.2 234.38 274.97 234.34 274.67C234.3 274.36 234.28 274.045 234.28 273.725V271.1H236.515V282.5H234.805L234.37 281.435H234.28C234.14 281.655 233.96 281.86 233.74 282.05C233.53 282.23 233.28 282.375 232.99 282.485C232.7 282.595 232.355 282.65 231.955 282.65ZM232.735 280.865C233.355 280.865 233.79 280.685 234.04 280.325C234.29 279.955 234.42 279.405 234.43 278.675V278.435C234.43 277.635 234.305 277.025 234.055 276.605C233.815 276.185 233.365 275.975 232.705 275.975C232.215 275.975 231.83 276.19 231.55 276.62C231.27 277.04 231.13 277.65 231.13 278.45C231.13 279.25 231.27 279.855 231.55 280.265C231.83 280.665 232.225 280.865 232.735 280.865ZM242.228 274.16C242.988 274.16 243.638 274.305 244.178 274.595C244.728 274.885 245.153 275.305 245.453 275.855C245.753 276.405 245.903 277.08 245.903 277.88V278.96H240.623C240.643 279.59 240.828 280.085 241.178 280.445C241.538 280.805 242.033 280.985 242.663 280.985C243.193 280.985 243.673 280.935 244.103 280.835C244.533 280.725 244.978 280.56 245.438 280.34V282.065C245.038 282.265 244.613 282.41 244.163 282.5C243.723 282.6 243.188 282.65 242.558 282.65C241.738 282.65 241.013 282.5 240.383 282.2C239.753 281.89 239.258 281.425 238.898 280.805C238.538 280.185 238.358 279.405 238.358 278.465C238.358 277.505 238.518 276.71 238.838 276.08C239.168 275.44 239.623 274.96 240.203 274.64C240.783 274.32 241.458 274.16 242.228 274.16ZM242.243 275.75C241.813 275.75 241.453 275.89 241.163 276.17C240.883 276.45 240.718 276.885 240.668 277.475H243.803C243.803 277.145 243.743 276.85 243.623 276.59C243.513 276.33 243.343 276.125 243.113 275.975C242.883 275.825 242.593 275.75 242.243 275.75ZM255.155 278.39C255.155 279.07 255.06 279.675 254.87 280.205C254.69 280.735 254.425 281.185 254.075 281.555C253.735 281.915 253.32 282.19 252.83 282.38C252.34 282.56 251.785 282.65 251.165 282.65C250.595 282.65 250.065 282.56 249.575 282.38C249.095 282.19 248.68 281.915 248.33 281.555C247.98 281.185 247.705 280.735 247.505 280.205C247.315 279.675 247.22 279.07 247.22 278.39C247.22 277.48 247.38 276.715 247.7 276.095C248.02 275.465 248.48 274.985 249.08 274.655C249.68 274.325 250.39 274.16 251.21 274.16C251.98 274.16 252.66 274.325 253.25 274.655C253.84 274.985 254.305 275.465 254.645 276.095C254.985 276.715 255.155 277.48 255.155 278.39ZM249.5 278.39C249.5 278.93 249.555 279.385 249.665 279.755C249.785 280.115 249.97 280.39 250.22 280.58C250.47 280.76 250.795 280.85 251.195 280.85C251.595 280.85 251.915 280.76 252.155 280.58C252.405 280.39 252.585 280.115 252.695 279.755C252.815 279.385 252.875 278.93 252.875 278.39C252.875 277.85 252.815 277.4 252.695 277.04C252.585 276.68 252.405 276.41 252.155 276.23C251.905 276.05 251.58 275.96 251.18 275.96C250.59 275.96 250.16 276.165 249.89 276.575C249.63 276.975 249.5 277.58 249.5 278.39Z" fill="#FFF974"/>
</g>
<g filter="url(#filter2_d_119_4047)">
<path d="M74.96 287.5H72.38L69.575 282.985L68.615 283.675V287.5H66.35V276.79H68.615V281.695C68.765 281.485 68.915 281.275 69.065 281.065C69.215 280.855 69.365 280.645 69.515 280.435L72.41 276.79H74.93L71.195 281.53L74.96 287.5ZM78.3659 278.425C78.3659 278.825 78.3509 279.21 78.3209 279.58C78.3009 279.95 78.2809 280.21 78.2609 280.36H78.3809C78.5609 280.08 78.7709 279.855 79.0109 279.685C79.2509 279.505 79.5159 279.375 79.8059 279.295C80.1059 279.205 80.4209 279.16 80.7509 279.16C81.3409 279.16 81.8559 279.265 82.2959 279.475C82.7359 279.685 83.0759 280.01 83.3159 280.45C83.5659 280.89 83.6909 281.46 83.6909 282.16V287.5H81.4559V282.715C81.4559 282.125 81.3459 281.685 81.1259 281.395C80.9159 281.095 80.5859 280.945 80.1359 280.945C79.6859 280.945 79.3309 281.05 79.0709 281.26C78.8209 281.47 78.6409 281.775 78.5309 282.175C78.4209 282.575 78.3659 283.065 78.3659 283.645V287.5H76.1309V276.1H78.3659V278.425ZM89.3643 279.16C90.1243 279.16 90.7743 279.305 91.3143 279.595C91.8643 279.885 92.2893 280.305 92.5893 280.855C92.8893 281.405 93.0393 282.08 93.0393 282.88V283.96H87.7593C87.7793 284.59 87.9643 285.085 88.3143 285.445C88.6743 285.805 89.1693 285.985 89.7993 285.985C90.3293 285.985 90.8093 285.935 91.2393 285.835C91.6693 285.725 92.1143 285.56 92.5743 285.34V287.065C92.1743 287.265 91.7493 287.41 91.2993 287.5C90.8593 287.6 90.3243 287.65 89.6943 287.65C88.8743 287.65 88.1493 287.5 87.5193 287.2C86.8893 286.89 86.3943 286.425 86.0343 285.805C85.6743 285.185 85.4943 284.405 85.4943 283.465C85.4943 282.505 85.6543 281.71 85.9743 281.08C86.3043 280.44 86.7593 279.96 87.3393 279.64C87.9193 279.32 88.5943 279.16 89.3643 279.16ZM89.3793 280.75C88.9493 280.75 88.5893 280.89 88.2993 281.17C88.0193 281.45 87.8543 281.885 87.8043 282.475H90.9393C90.9393 282.145 90.8793 281.85 90.7593 281.59C90.6493 281.33 90.4793 281.125 90.2493 280.975C90.0193 280.825 89.7293 280.75 89.3793 280.75ZM99.4266 279.16C99.5366 279.16 99.6666 279.165 99.8166 279.175C99.9666 279.185 100.087 279.2 100.177 279.22L100.012 281.32C99.9416 281.3 99.8366 281.285 99.6966 281.275C99.5666 281.255 99.4516 281.245 99.3516 281.245C99.0616 281.245 98.7816 281.285 98.5116 281.365C98.2416 281.435 97.9966 281.55 97.7766 281.71C97.5666 281.87 97.3966 282.085 97.2666 282.355C97.1466 282.615 97.0866 282.94 97.0866 283.33V287.5H94.8516V279.31H96.5466L96.8766 280.69H96.9816C97.1416 280.41 97.3416 280.155 97.5816 279.925C97.8216 279.695 98.0966 279.51 98.4066 279.37C98.7266 279.23 99.0666 279.16 99.4266 279.16ZM107.768 284.635C107.728 284.465 107.668 284.215 107.588 283.885C107.518 283.545 107.438 283.185 107.348 282.805C107.258 282.415 107.173 282.06 107.093 281.74C107.013 281.41 106.958 281.17 106.928 281.02H106.868C106.838 281.17 106.783 281.41 106.703 281.74C106.633 282.06 106.553 282.415 106.463 282.805C106.373 283.185 106.288 283.545 106.208 283.885C106.128 284.225 106.068 284.485 106.028 284.665L105.368 287.5H102.968L100.643 279.31H102.863L103.808 282.94C103.878 283.19 103.938 283.49 103.988 283.84C104.048 284.19 104.103 284.53 104.153 284.86C104.203 285.18 104.238 285.435 104.258 285.625H104.318C104.328 285.485 104.348 285.3 104.378 285.07C104.408 284.83 104.443 284.585 104.483 284.335C104.533 284.085 104.573 283.86 104.603 283.66C104.643 283.45 104.673 283.31 104.693 283.24L105.698 279.31H108.158L109.118 283.24C109.158 283.38 109.203 283.605 109.253 283.915C109.313 284.225 109.363 284.54 109.403 284.86C109.453 285.18 109.478 285.435 109.478 285.625H109.538C109.558 285.455 109.593 285.21 109.643 284.89C109.693 284.56 109.748 284.215 109.808 283.855C109.878 283.495 109.948 283.19 110.018 282.94L110.993 279.31H113.183L110.828 287.5H108.398L107.768 284.635ZM117.87 279.145C118.97 279.145 119.81 279.385 120.39 279.865C120.98 280.335 121.275 281.06 121.275 282.04V287.5H119.715L119.28 286.39H119.22C118.99 286.68 118.75 286.92 118.5 287.11C118.26 287.3 117.98 287.435 117.66 287.515C117.35 287.605 116.965 287.65 116.505 287.65C116.025 287.65 115.59 287.56 115.2 287.38C114.82 287.19 114.52 286.905 114.3 286.525C114.08 286.135 113.97 285.645 113.97 285.055C113.97 284.185 114.275 283.545 114.885 283.135C115.495 282.715 116.41 282.485 117.63 282.445L119.055 282.4V282.04C119.055 281.61 118.94 281.295 118.71 281.095C118.49 280.895 118.18 280.795 117.78 280.795C117.38 280.795 116.99 280.855 116.61 280.975C116.23 281.085 115.85 281.225 115.47 281.395L114.735 279.88C115.175 279.65 115.66 279.47 116.19 279.34C116.73 279.21 117.29 279.145 117.87 279.145ZM118.185 283.735C117.465 283.755 116.965 283.885 116.685 284.125C116.405 284.365 116.265 284.68 116.265 285.07C116.265 285.41 116.365 285.655 116.565 285.805C116.765 285.945 117.025 286.015 117.345 286.015C117.825 286.015 118.23 285.875 118.56 285.595C118.89 285.305 119.055 284.9 119.055 284.38V283.705L118.185 283.735ZM128.138 279.16C128.248 279.16 128.378 279.165 128.528 279.175C128.678 279.185 128.798 279.2 128.888 279.22L128.723 281.32C128.653 281.3 128.548 281.285 128.408 281.275C128.278 281.255 128.163 281.245 128.063 281.245C127.773 281.245 127.493 281.285 127.223 281.365C126.953 281.435 126.708 281.55 126.488 281.71C126.278 281.87 126.108 282.085 125.978 282.355C125.858 282.615 125.798 282.94 125.798 283.33V287.5H123.563V279.31H125.258L125.588 280.69H125.693C125.853 280.41 126.053 280.155 126.293 279.925C126.533 279.695 126.808 279.51 127.118 279.37C127.438 279.23 127.778 279.16 128.138 279.16ZM133.441 279.145C134.541 279.145 135.381 279.385 135.961 279.865C136.551 280.335 136.846 281.06 136.846 282.04V287.5H135.286L134.851 286.39H134.791C134.561 286.68 134.321 286.92 134.071 287.11C133.831 287.3 133.551 287.435 133.231 287.515C132.921 287.605 132.536 287.65 132.076 287.65C131.596 287.65 131.161 287.56 130.771 287.38C130.391 287.19 130.091 286.905 129.871 286.525C129.651 286.135 129.541 285.645 129.541 285.055C129.541 284.185 129.846 283.545 130.456 283.135C131.066 282.715 131.981 282.485 133.201 282.445L134.626 282.4V282.04C134.626 281.61 134.511 281.295 134.281 281.095C134.061 280.895 133.751 280.795 133.351 280.795C132.951 280.795 132.561 280.855 132.181 280.975C131.801 281.085 131.421 281.225 131.041 281.395L130.306 279.88C130.746 279.65 131.231 279.47 131.761 279.34C132.301 279.21 132.861 279.145 133.441 279.145ZM133.756 283.735C133.036 283.755 132.536 283.885 132.256 284.125C131.976 284.365 131.836 284.68 131.836 285.07C131.836 285.41 131.936 285.655 132.136 285.805C132.336 285.945 132.596 286.015 132.916 286.015C133.396 286.015 133.801 285.875 134.131 285.595C134.461 285.305 134.626 284.9 134.626 284.38V283.705L133.756 283.735Z" fill="#FFF974"/>
</g>
</g>
<defs>
<filter id="filter0_d_119_4047" x="0" y="0.5" width="375.586" height="377" filterUnits="userSpaceOnUse" color-interpolation-filters="sRGB">
<feFlood flood-opacity="0" result="BackgroundImageFix"/>
<feColorMatrix in="SourceAlpha" type="matrix" values="0 0 0 0 0 0 0 0 0 0 0 0 0 0 0 0 0 0 127 0" result="hardAlpha"/>
<feOffset dy="2"/>
<feGaussianBlur stdDeviation="5"/>
<feComposite in2="hardAlpha" operator="out"/>
<feColorMatrix type="matrix" values="0 0 0 0 0 0 0 0 0 0 0 0 0 0 0 0 0 0 0.1 0"/>
<feBlend mode="normal" in2="BackgroundImageFix" result="effect1_dropShadow_119_4047"/>
<feBlend mode="normal" in="SourceGraphic" in2="effect1_dropShadow_119_4047" result="shape"/>
</filter>
<filter id="filter1_d_119_4047" x="159.35" y="263.1" width="105.805" height="31.5498" filterUnits="userSpaceOnUse" color-interpolation-filters="sRGB">
<feFlood flood-opacity="0" result="BackgroundImageFix"/>
<feColorMatrix in="SourceAlpha" type="matrix" values="0 0 0 0 0 0 0 0 0 0 0 0 0 0 0 0 0 0 127 0" result="hardAlpha"/>
<feOffset dy="2"/>
<feGaussianBlur stdDeviation="5"/>
<feComposite in2="hardAlpha" operator="out"/>
<feColorMatrix type="matrix" values="0 0 0 0 0 0 0 0 0 0 0 0 0 0 0 0 0 0 0.1 0"/>
<feBlend mode="normal" in2="BackgroundImageFix" result="effect1_dropShadow_119_4047"/>
<feBlend mode="normal" in="SourceGraphic" in2="effect1_dropShadow_119_4047" result="shape"/>
</filter>
<filter id="filter2_d_119_4047" x="39.3501" y="261.1" width="124.496" height="65.5498" filterUnits="userSpaceOnUse" color-interpolation-filters="sRGB">
<feFlood flood-opacity="0" result="BackgroundImageFix"/>
<feColorMatrix in="SourceAlpha" type="matrix" values="0 0 0 0 0 0 0 0 0 0 0 0 0 0 0 0 0 0 127 0" result="hardAlpha"/>
<feMorphology radius="10" operator="dilate" in="SourceAlpha" result="effect1_dropShadow_119_4047"/>
<feOffset dy="12"/>
<feGaussianBlur stdDeviation="8.5"/>
<feColorMatrix type="matrix" values="0 0 0 0 0.634294 0 0 0 0 0.634294 0 0 0 0 0.634294 0 0 0 0.04 0"/>
<feBlend mode="normal" in2="BackgroundImageFix" result="effect1_dropShadow_119_4047"/>
<feBlend mode="normal" in="SourceGraphic" in2="effect1_dropShadow_119_4047" result="shape"/>
</filter>
<clipPath id="clip0_119_4047">
<rect width="15.4253" height="15.4253" fill="white" transform="translate(153 272.5)"/>
</clipPath>
<clipPath id="clip1_119_4047">
<rect width="15.4253" height="15.4253" fill="white" transform="translate(122 296.5)"/>
</clipPath>
</defs>
</svg>
